<svg xmlns="http://www.w3.org/2000/svg" viewBox="0 0 14.801146 11.307961">
  <a aria-label="st" transform="matrix(1 -.33408 0 1 -175.2665797 -73.4547708)">
    <path id="svg-logo" style="fill:#3e333e;font-style:normal;font-variant:normal;font-weight:normal;font-stretch:normal;font-family:Pacifico;-inkscape-font-specification:Pacifico;stroke-width:0.99999994" d="m 49.882812,0 c -0.253903,0.00671618 -0.52085,0.0568707 -0.800781,0.15039062 -0.872428,0.29146296 -1.705732,0.96119548 -2.5,2.00781248 -0.794267,1.0335777 -1.529929,2.3089273 -2.207031,3.8242188 -0.04097,0.09241 -0.07666,0.1992706 -0.117188,0.2929687 C 44.016722,6.0643565 43.806849,5.8682923 43.554688,5.6523438 42.747418,4.9454839 41.868482,4.4318004 40.917969,4.1113281 39.980457,3.7735107 38.971381,3.5965914 37.890625,3.5800781 36.809907,3.5505884 35.651064,3.7429895 34.414062,4.15625 c -1.445291,0.4828464 -2.747409,1.1844621 -3.90625,2.1054688 -1.15884,0.908005 -2.141911,1.9581642 -2.949218,3.1523437 -0.794268,1.1768215 -1.406243,2.4619125 -1.835938,3.8554685 -0.429845,1.380606 -0.644531,2.931651 -0.644531,4.650391 0,0.266428 0.02959,0.519696 0.04492,0.779297 -0.280652,0.233903 -0.546454,0.474002 -0.845703,0.699219 -0.559899,0.408532 -1.054681,0.684571 -1.484375,0.828124 -0.507818,0.169653 -0.94387,0.172453 -1.308594,0.0078 -0.364535,-0.164666 -0.67041,-0.374919 -0.917969,-0.630859 -0.286337,-0.307994 -0.520574,-0.685983 -0.703125,-1.132813 0.169134,-0.395037 0.364457,-0.824456 0.585938,-1.289062 0.182286,-0.399431 0.423317,-0.999625 0.722656,-1.802735 0.312491,-0.807503 0.611949,-1.520151 0.898437,-2.136718 0.01285,-0.0303 0.08445,-0.191301 0.214844,-0.482422 0.13047,-0.303997 0.266912,-0.655336 0.410156,-1.054688 0.143434,-0.412492 0.27346,-0.846898 0.390626,-1.302734 0.130393,-0.4602176 0.195312,-0.871604 0.195312,-1.2363284 0,-0.4817764 -0.227858,-0.796274 -0.683594,-0.9433594 -0.455697,-0.1604397 -1.054689,-0.1170918 -1.796875,0.1308594 -0.716145,0.2392514 -1.33465,0.5883435 -1.855469,1.0488282 -0.520856,0.4474578 -0.85953,0.8800022 -1.015624,1.2968752 l -4.863282,12.835937 -0.292968,0.117188 1.816406,-11.955078 c 0,-0.377462 -0.156183,-0.625131 -0.46875,-0.742188 -0.29949,-0.134276 -0.735655,-0.105471 -1.308594,0.08594 -0.677065,0.226195 -1.263035,0.533145 -1.757812,0.919922 -0.481777,0.369318 -0.91798,0.834339 -1.3085942,1.394531 -0.3906142,0.560192 -0.7551044,1.222169 -1.09375,1.986328 C 8.326813,16.101575 7.9819119,16.97838 7.6171875,17.972656 7.2656536,18.962488 6.842472,20.223382 6.3476562,21.755859 5.8658799,23.270979 5.3385258,24.789072 4.765625,26.308594 l -0.2539062,0.103515 1.5625,-11.86914 c 0,-0.377499 -0.1561831,-0.625131 -0.46875,-0.742188 -0.299452,-0.134289 -0.7356552,-0.105471 -1.3085938,0.08594 l -0.46875,0.117187 c -0.4817764,0.160953 -0.8985039,0.415819 -1.25,0.767578 -0.3385323,0.347467 -0.6380281,0.747497 -0.8984375,1.199219 -0.2474457,0.434239 -0.4556772,0.901127 -0.625,1.400391 -0.15628346,0.481906 -0.28668799,0.942482 -0.390625,1.380859 -0.0910866,0.434084 -0.16268627,0.823174 -0.21484375,1.166016 -0.039685,0.325825 -0.0667864,0.555271 -0.078125,0.689453 -0.0389291,0.533824 -0.10422589,1.134282 -0.1953125,1.802734 -0.09146457,0.65554 -0.14491142,1.149311 -0.15625,1.478516 C 0.00819267,24.204989 0,24.526145 0,24.851562 v 1.09375 c 0,2.929701 0.23438799,5.065436 0.703125,6.40625 0.4817764,1.336421 1.2304969,1.835387 2.2460938,1.496094 0.5989417,-0.200096 1.210917,-0.638861 1.8359374,-1.316406 0.6250205,-0.690585 1.2304661,-1.557507 1.8164063,-2.599609 0.5859402,-1.055104 1.1328077,-2.25417 1.640625,-3.595703 0.5208567,-1.358929 0.9700814,-2.810078 1.3476563,-4.355469 l 0.5664062,-0.08984 c 0,0.703106 0.0082,1.421758 0.01953,2.160156 0.01285,0.737893 0.03214,1.454133 0.05859,2.148438 0.03893,0.6901 0.08456,1.346199 0.136719,1.966797 0.06501,0.603302 0.143288,1.130685 0.234375,1.582031 0.09109,0.438344 0.201637,0.778558 0.332031,1.021484 0.143206,0.225493 0.306108,0.308908 0.488281,0.248047 0.520857,-0.174009 1.041681,-0.525289 1.5625,-1.050781 0.520857,-0.525581 1.035152,-1.185833 1.542969,-1.980469 0.50778,-0.794661 1.002599,-1.702314 1.484375,-2.722656 0.481776,-1.033344 0.944023,-2.144412 1.386719,-3.333984 0.01304,0.76387 0.149747,1.376075 0.410156,1.835937 0.273449,0.442504 0.631523,0.75847 1.074219,0.949219 0.455735,0.186317 0.97656,0.260361 1.5625,0.220703 0.598941,-0.044 1.230468,-0.176586 1.894531,-0.398438 0.84635,-0.28275 1.725248,-0.739217 2.636719,-1.36914 0.352658,-0.241997 0.695877,-0.512163 1.039062,-0.783203 0.166554,0.307001 0.350743,0.594106 0.5625,0.851562 0.520857,0.633298 1.184918,1.070471 1.992188,1.308594 0.488241,0.131488 1.040974,0.141062 1.644531,0.05859 -0.5681,0.909639 -1.135839,1.817235 -1.527344,2.476562 -0.520856,0.864113 -0.9634,1.597548 -1.328125,2.201172 -0.364611,0.603587 -0.683393,1.127399 -0.957031,1.570312 -0.260409,0.43857 -0.618483,1.014411 -1.074219,1.726563 -0.455735,0.699113 -0.91149,1.333448 -1.367187,1.902344 -0.455736,0.568946 -1.04816,1.287659 -1.777344,2.15625 h -0.002 c -0.104013,0.125835 -0.260498,0.301676 -0.46875,0.527343 -0.20829,0.225794 -0.416748,0.478035 -0.625,0.75586 -0.208214,0.277888 -0.390781,0.578511 -0.546875,0.904297 -0.156095,0.312558 -0.234375,0.624933 -0.234375,0.9375 0,0.351609 0.03895,0.611986 0.117187,0.78125 0.07824,0.156111 0.182107,0.259116 0.3125,0.30664 0.130092,0.03515 0.286199,0.03012 0.46875,-0.01953 0.182249,-0.04955 0.377686,-0.108161 0.585938,-0.177734 0.169172,-0.05652 0.33849,-0.119594 0.507812,-0.1875 0.182136,-0.07408 0.364324,-0.161803 0.546875,-0.261719 0.06512,0.68135 0.25384,1.217067 0.566407,1.607422 0.312529,0.390367 0.716159,0.65937 1.210937,0.806641 0.50778,0.130038 1.09375,0.154779 1.757813,0.07617 0.664063,-0.07861 1.380173,-0.245289 2.148437,-0.501953 1.067679,-0.356692 2.193987,-0.850277 3.378906,-1.480468 1.197922,-0.647575 2.376316,-1.373894 3.535157,-2.177735 1.17188,-0.80816 2.285166,-1.661338 3.339843,-2.560547 1.028007,-0.869978 1.928218,-1.735858 2.714844,-2.597656 0.104917,0.254433 0.215628,0.496223 0.333985,0.720703 0.507817,0.950146 1.139343,1.598666 1.894531,1.945313 0.755187,0.346798 1.627594,0.354043 2.617187,0.02344 0.481777,-0.160953 1.015623,-0.43029 1.601563,-0.808594 0.598941,-0.382382 1.276025,-0.881015 2.03125,-1.498047 0.768227,-0.621224 1.640633,-1.369078 2.617187,-2.242187 1.023912,-0.936288 2.104838,-2.372916 2.833985,-3.503906 L 55.9375,23.484375 c 0,0 -0.826817,1.129385 -1.308594,1.707031 -0.481776,0.564569 -0.989579,1.125713 -1.523437,1.681641 -0.520857,0.538582 -1.054703,1.053565 -1.601563,1.548828 -0.533858,0.490882 -1.048191,0.93631 -1.542968,1.335937 -0.481777,0.382169 -0.930964,0.708913 -1.347657,0.978516 -0.403615,0.265235 -0.741987,0.443739 -1.015625,0.535156 -0.442696,0.147897 -0.846213,0.21753 -1.210937,0.208985 -0.351534,-0.02576 -0.650879,-0.148601 -0.898438,-0.365235 -0.247408,-0.229836 -0.436012,-0.563739 -0.566406,-1.001953 -0.130394,-0.438214 -0.195313,-1.007832 -0.195313,-1.710937 v -0.898438 c 0.01247,-0.329697 0.02772,-0.674013 0.03906,-1.029297 0.01247,-0.355738 0.02772,-0.713075 0.03906,-1.068359 0.01247,-0.368778 0.02772,-0.723973 0.03906,-1.066406 0.03893,-0.794234 0.08456,-1.604956 0.136719,-2.429688 0.32553,-0.51237 0.677112,-1.078262 1.054687,-1.699218 0.390614,-0.638277 0.774769,-1.280737 1.152344,-1.927735 l 7.5,-2.505859 c 0.312491,-0.104398 0.598966,-0.343311 0.859375,-0.716797 0.260598,-0.373512 0.390625,-0.788443 0.390625,-1.244141 0,-0.377575 -0.05862,-0.67049 -0.175781,-0.878906 -0.117203,-0.208593 -0.305997,-0.276832 -0.566407,-0.201172 -0.221366,0.06148 -0.501198,0.140391 -0.839843,0.242188 -0.338533,0.100625 -0.703136,0.207013 -1.09375,0.326172 -0.390614,0.118024 -0.794283,0.237375 -1.210938,0.365234 -0.416693,0.110863 -0.80715,0.223475 -1.171875,0.333984 -0.351571,0.08986 -0.663862,0.18202 -0.9375,0.273438 -0.273373,0.09133 -0.468772,0.14993 -0.585937,0.177734 0.468775,-0.898795 0.91147,-1.797022 1.328125,-2.691406 0.429694,-0.898741 0.800714,-1.764049 1.113281,-2.5976564 C 52.109253,8.3194698 52.356511,7.5140926 52.539062,6.75 52.721614,5.972868 52.8125,5.2649752 52.8125,4.6269531 c 0,-0.7551874 -0.09089,-1.447055 -0.273438,-2.0761719 C 52.369777,1.9041931 52.122292,1.3749933 51.796875,0.96289062 51.471344,0.55078801 51.074244,0.26728564 50.605469,0.11132812 50.377601,0.03111456 50.136716,-0.00671618 49.882812,0 Z m -0.904296,4.5996094 c 0.09437,-0.0055 0.175037,0.00692 0.240234,0.037109 0.143244,0.056271 0.247492,0.1507797 0.3125,0.2851562 0.06539,0.1340991 0.105849,0.2899868 0.117188,0.46875 0.02759,0.1601809 0.03906,0.3137872 0.03906,0.4570312 0,0.4166552 -0.110551,0.9878744 -0.332031,1.7128907 -0.221367,0.7250162 -0.501198,1.5203489 -0.839844,2.3886719 -0.338532,0.8552832 -0.722649,1.7451402 -1.152344,2.6699222 -0.416655,0.907461 -0.820323,1.760127 -1.210937,2.554687 -0.208366,0.04126 -0.410067,0.08864 -0.605469,0.142578 -0.195364,0.03919 -0.390536,0.07836 -0.585937,0.117188 0.234368,-1.132976 0.48808,-2.304409 0.761718,-3.515625 0.286451,-1.215497 0.585871,-2.3382922 0.898438,-3.3671878 0.32553,-1.0462658 0.657448,-1.9246414 0.996094,-2.6367187 0.351571,-0.7165468 0.69651,-1.1310051 1.035156,-1.2441406 0.123704,-0.041327 0.231797,-0.064815 0.326172,-0.070312 z M 38.476562,6.7050781 c 0.468775,0.155882 1.028664,0.3600489 1.679688,0.6113281 0.651024,0.2382399 1.308593,0.5773579 1.972656,1.0195313 0.382306,0.247222 0.72269,0.4478211 1.080078,0.6660156 -0.222781,0.6440826 -0.444264,1.2882979 -0.65039,1.9804689 -0.533859,1.81897 -0.976629,3.665766 -1.328125,5.541016 -0.130205,0.07109 -0.37116,0.163821 -0.722657,0.28125 -0.338532,0.100625 -0.729178,0.215004 -1.171874,0.351562 -0.38551,0.118619 -0.799138,0.25928 -1.226563,0.410156 0.12018,-0.270908 0.244481,-0.541241 0.347656,-0.816406 0.325455,-0.837913 0.572865,-1.675838 0.742188,-2.513672 0.169323,-0.837834 0.253906,-1.639976 0.253906,-2.408203 0,-1.054677 -0.09757,-1.9663072 -0.292969,-2.734375 C 38.97787,8.3082991 38.697887,7.6017404 38.320312,6.9726562 Z m -4.498046,1.4296875 c 0.172526,-0.00227 0.331365,0.026959 0.474609,0.089844 0.286564,0.125631 0.520952,0.3473485 0.703125,0.6640625 0.182249,0.3167265 0.31907,0.7205112 0.410156,1.2109371 0.09109,0.477349 0.136719,1.014302 0.136719,1.613282 0,0.755187 -0.09757,1.653478 -0.292969,2.695312 -0.182286,1.024452 -0.42962,1.933989 -0.742187,2.728516 -0.312492,0.7815 -0.677057,1.469508 -1.09375,2.064453 -0.416655,0.58178 -0.846367,0.947806 -1.289063,1.095703 -0.507817,0.169653 -0.943869,0.211404 -1.308594,0.125 -0.364459,-0.09957 -0.657425,-0.288903 -0.878906,-0.566406 -0.221442,-0.290631 -0.384344,-0.658416 -0.488281,-1.105469 -0.103937,-0.447053 -0.15625,-0.945328 -0.15625,-1.492188 0,-1.080718 0.104248,-2.084709 0.3125,-3.013671 0.208365,-0.928963 0.494651,-1.805868 0.859375,-2.63086 0.364611,-0.837955 0.787755,-1.56499 1.269531,-2.1816404 C 32.376308,8.81499 32.88411,8.4166339 33.417969,8.2382812 33.619796,8.1708545 33.80599,8.1370334 33.978516,8.1347656 Z m 6.705078,11.6972654 c -0.117544,0.91166 -0.20843,1.821368 -0.273438,2.728516 -0.0635,0.906643 -0.09766,1.749984 -0.09766,2.53125 0,1.802022 0.104791,3.397394 0.304688,4.806641 -0.303385,0.296358 -0.606777,0.579963 -0.910157,0.845703 -0.611981,0.529982 -1.210935,1.028656 -1.796875,1.498047 -0.58594,0.469201 -1.152359,0.926034 -1.699218,1.36914 -0.533859,0.425723 -1.035132,0.872621 -1.503907,1.341797 0,-0.833348 0.03265,-1.671645 0.09766,-2.513672 0.07824,-0.846484 0.06487,-1.485908 -0.03906,-1.919922 -0.09109,-0.438344 -0.189032,-0.81604 -0.292969,-1.132812 -0.104315,-0.329761 -0.208563,-0.632313 -0.3125,-0.910157 -0.09109,-0.2951 -0.169367,-0.594738 -0.234375,-0.898437 -0.05178,-0.321234 -0.07813,-0.684237 -0.07813,-1.087891 0.03908,-0.156262 0.18881,-0.421435 0.449219,-0.794922 0.273449,-0.390844 0.560036,-0.812172 0.859375,-1.263671 0.299452,-0.451614 0.572753,-0.906908 0.820312,-1.367188 0.24756,-0.460318 0.371094,-0.847589 0.371094,-1.160156 0,-0.156208 -0.01261,-0.33379 -0.03906,-0.533203 -0.02249,-0.183372 -0.103417,-0.33509 -0.222656,-0.466797 0.07804,-0.09595 0.157099,-0.190809 0.232421,-0.289063 0.07934,-0.0094 0.152466,-0.01204 0.244141,-0.03125 0.703106,-0.156659 1.236838,-0.270153 1.601562,-0.339843 0.377651,-0.07439 0.683639,-0.124263 0.917969,-0.150391 0.24737,-0.04371 0.475342,-0.07438 0.683594,-0.0918 0.221367,-0.03503 0.527355,-0.09158 0.917969,-0.169922 z m -10.587891,11.03711 c 0.06501,0.186609 0.214844,0.689453 0.214844,0.689453 0,0 0.0725,0.636183 0.149547,1.204761 0.07336,0.519968 0.129396,0.919049 0.04556,1.337732 0.06294,0.347274 -0.09549,0.744683 -0.09549,1.096179 0,0.403615 -0.03895,0.807225 -0.117187,1.210937 -0.07831,0.390774 -0.214755,0.761513 -0.410157,1.113281 -0.195288,0.338616 -0.462135,0.649183 -0.800781,0.931641 -0.32553,0.278077 -0.742182,0.502222 -1.25,0.671875 -0.416655,0.139197 -0.787864,0.166763 -1.113281,0.08008 -0.325455,-0.08664 -0.611816,-0.205796 -0.859375,-0.357422 -0.247446,-0.151739 -0.468661,-0.293707 -0.664063,-0.423828 0,0 -0.351718,-0.175195 -0.507812,-0.123047 z" transform="matrix(.26458 .0884 0 .26458 175.26658 132.00825)"/>
  </a>
</svg>
